<?xml version="1.0" standalone="no"?>
<!DOCTYPE svg PUBLIC "-//W3C//DTD SVG 20010904//EN"
 "http://www.w3.org/TR/2001/REC-SVG-20010904/DTD/svg10.dtd">
<svg version="1.0" xmlns="http://www.w3.org/2000/svg"
 width="512.000000pt" height="512.000000pt" viewBox="0 0 512.000000 512.000000"
 preserveAspectRatio="xMidYMid meet">
<metadata>
Created by potrace 1.14, written by Peter Selinger 2001-2017
</metadata>
<g transform="translate(0.000000,512.000000) scale(0.100000,-0.100000)"
fill="#000000" stroke="none">
<path d="M1069 4840 c-43 -12 -77 -40 -96 -79 -16 -33 -18 -63 -18 -282 1
-274 4 -289 76 -337 44 -30 121 -27 165 7 58 44 62 68 60 345 -1 246 -1 252
-24 284 -38 53 -105 78 -163 62z"/>
<path d="M2922 4840 c-18 -4 -45 -18 -59 -31 -51 -48 -53 -60 -53 -326 0 -216
2 -252 18 -282 38 -75 132 -102 206 -59 72 42 76 60 76 336 0 183 -3 251 -14
275 -29 69 -98 103 -174 87z"/>
<path d="M610 4517 c-189 -24 -380 -144 -489 -308 -47 -71 -96 -185 -110 -259
-7 -37 -9 -478 -8 -1340 3 -1389 -1 -1284 53 -1420 49 -125 184 -275 306 -341
79 -43 177 -76 254 -85 32 -4 574 -7 1204 -6 630 0 1154 -1 1165 -3 17 -4 95
-94 95 -110 0 -3 38 -43 85 -89 162 -161 351 -263 578 -312 93 -20 312 -26
402 -10 39 7 72 13 75 13 25 4 105 28 149 44 441 161 738 582 750 1060 10 428
-245 847 -634 1042 -128 63 -314 113 -422 111 l-23 0 0 685 c-1 377 -3 704 -6
726 -12 93 -71 238 -128 315 -139 186 -344 290 -576 294 l-55 1 -5 -145 c-5
-127 -9 -151 -30 -193 -74 -147 -253 -213 -391 -144 -65 33 -99 62 -132 113
-39 61 -48 103 -50 241 l-2 128 -635 1 c-349 0 -640 -2 -647 -4 -8 -2 -11 -40
-11 -120 0 -167 -21 -231 -106 -311 -47 -45 -149 -80 -217 -74 -104 9 -205 77
-249 168 -29 60 -31 74 -31 213 0 67 -4 122 -7 123 -32 5 -98 4 -152 -4z"/>
</g>
</svg>
